<svg width="935" height="330" fill="none" xmlns="http://www.w3.org/2000/svg"><g opacity=".3" fill="#000"><g opacity=".2"><path d="M112 30a8 8 0 0 0 6-12l-4-6a5 5 0 0 0-6-2 5 5 0 0 0-4 5c0 3-1 5-3 7a5 5 0 0 0 1 9h3l7-1ZM119 15l1 3 3 2 4-1 1-3c1-3-1-5-4-5-2 0-4 1-5 3v1ZM120 23c-1 3 0 6 3 7 3 2 6 1 7-2 1-2 0-6-3-7s-6 0-7 2ZM115 31v1c-1 2-1 4 1 6l3 1 4-1 1-4-2-3c-2-2-5-2-7 0ZM112 40c2-1 2-4 1-6s-4-3-6-2l-2 2 1 4c1 3 4 4 6 2Z"/></g><g opacity=".3"><path d="M243 100a8 8 0 0 0 6-12l-4-6a5 5 0 0 0-6-2 5 5 0 0 0-4 5c0 3-1 5-3 7a5 5 0 0 0 1 9h3l7-1ZM250 85l1 3 3 2 4-1 1-3c1-3-1-5-4-5-2 0-4 1-5 3v1ZM251 93c-1 3 0 6 3 7 3 2 6 1 7-2 1-2 0-6-3-7s-6 0-7 2ZM246 101v1c-1 2-1 4 1 6l3 1 4-1 1-4-2-3c-2-2-5-2-7 0ZM243 110c2-1 2-4 1-6s-4-3-6-2l-2 2 1 4c1 3 4 4 6 2Z"/></g><g opacity=".6"><path d="M696 72a8 8 0 0 0-5-13l-7-1a5 5 0 0 0-5 3 5 5 0 0 0 1 6c2 2 3 5 3 7a5 5 0 0 0 9 3l4-5ZM690 57l3 1 3-2 2-3-1-3c-2-2-5-2-6 0-2 2-2 4-2 5l1 2ZM697 61c1 3 4 4 7 3s4-4 3-7c-1-2-4-3-7-2s-4 4-3 6ZM699 70v1c1 2 3 3 5 3l4-1 1-4-2-3-3-1c-3 0-5 2-5 5ZM703 79c1-2-1-4-3-5-3-1-5 1-6 3v2c1 2 2 3 4 3 2 1 5 0 5-3Z"/></g><g opacity=".2"><path d="M19 29a9 9 0 0 0 8-13l-3-7a6 6 0 0 0-7-3 6 6 0 0 0-4 5c-1 3-2 6-5 8a6 6 0 0 0-2 7 6 6 0 0 0 6 3h7ZM28 13l2 4 3 2 4-1 2-3c0-2-2-5-5-5-2-1-4 0-5 2l-1 1Z"/><path d="M29 23c-2 2-1 6 2 7 3 2 7 2 9-1 1-3 0-6-3-8s-7-1-8 2ZM23 30l-1 1c-1 2-1 5 1 7l3 2 4-1 2-4-2-4c-2-2-5-3-7-1ZM18 40c2-1 3-4 2-6-1-3-4-4-7-3l-2 1v5c1 3 4 4 7 3Z"/></g><g opacity=".4"><path d="M396 123a8 8 0 0 0-5-12l-7-1a5 5 0 0 0-5 2 5 5 0 0 0 1 6c2 2 3 5 3 8a5 5 0 0 0 3 5 5 5 0 0 0 6-2l4-6ZM390 108l3 2 3-2 2-3-1-3c-2-2-5-2-7 0-1 1-2 4-1 5l1 1Z"/><path d="M396 113c1 3 5 4 7 3 3-2 5-5 4-7-1-3-4-4-7-2-3 1-5 4-4 6ZM398 121l1 2c0 1 2 3 5 3l3-2 1-3-1-3-4-1c-3 0-5 2-5 4ZM403 131c0-3-1-5-4-6-2 0-5 1-5 3v3l3 3c3 0 5-1 6-3Z"/></g><path d="M909 312a8 8 0 0 0 13-4l2-6a5 5 0 0 0-2-6 5 5 0 0 0-6 0c-2 2-5 3-8 2a5 5 0 0 0-5 6l1 3 5 5ZM925 308l-2 2 1 4 3 2 3-1c2-1 2-4 1-6s-3-3-5-2l-1 1Z"/><path d="M919 314c-2 0-4 3-3 6s3 5 6 4c3 0 4-3 3-6s-3-5-6-4ZM911 314l-2 1c-1 0-3 2-3 4l1 4 3 2 3-2 2-3c0-3-2-5-4-6ZM901 318c2 1 5-1 6-3 1-3 0-5-3-6h-2c-1 0-3 1-3 3-1 2 0 5 2 6Z"/><g opacity=".5"><path d="M505 127a9 9 0 0 0-12-10l-7 3a6 6 0 0 0-4 5 6 6 0 0 0 4 6c3 0 5 3 7 5a6 6 0 0 0 6 4 6 6 0 0 0 5-5l1-8ZM491 115h4l2-3v-4l-2-2c-3-1-6 0-7 3 0 2 0 4 2 6h1Z"/><path d="M500 117c2 2 6 1 8-1 3-3 3-7 0-8-2-2-6-2-8 1-2 2-2 6 0 8ZM506 124l1 1c2 2 4 2 7 1l2-4v-4l-3-2-4 1c-3 2-4 5-3 7ZM515 131c0-2-3-4-6-3-3 0-5 3-4 6l1 2 5 1c3-1 5-3 4-6Z"/></g><g opacity=".3"><path d="M164 121a9 9 0 0 0 0-15l-6-4a6 6 0 0 0-7 0 6 6 0 0 0-2 7h1c1 3 0 6-1 9a6 6 0 0 0 1 6 6 6 0 0 0 7 1l7-4ZM164 103l3 3h4l3-2v-4c0-3-3-4-6-3-2 1-4 3-4 5v1ZM169 111c0 3 3 6 6 6s6-2 6-5c1-3-2-6-6-6-3 0-6 2-6 5ZM167 121v1c0 2 1 4 4 5h4l3-2-1-4-3-3c-3-1-6 0-7 3ZM167 132c2-2 1-5-1-7s-5-1-7 1l-1 2 2 5c3 1 6 1 7-1Z"/></g><g opacity=".6"><path d="M579 44a8 8 0 0 0-2-13l-6-3a5 5 0 0 0-6 2 5 5 0 0 0-1 6c2 2 2 5 1 8a5 5 0 0 0 3 5 5 5 0 0 0 6 0l5-5ZM576 28l3 2 3-1 3-2-1-3c-1-2-4-3-6-2s-3 3-2 5v1ZM582 34c0 3 3 5 6 4 3 0 5-3 4-5 0-3-3-5-6-4-3 0-5 3-4 5ZM582 43v1c0 2 2 4 4 4l3-1c2 0 2-1 3-2l-1-4-4-2c-2 0-5 1-5 4Z"/><path d="M584 53c1-2 0-5-2-6-3-1-6-1-7 2v2c0 1 1 3 3 3 2 2 5 1 6-1Z"/></g><g opacity=".8"><path d="M817 147a8 8 0 0 0 13-3l2-6a5 5 0 0 0-2-6 5 5 0 0 0-6 0c-2 2-5 3-8 2a5 5 0 0 0-5 3 5 5 0 0 0 1 6l5 4ZM833 144l-2 2 1 4 3 2 3-1c2-1 2-4 1-6s-3-2-5-2l-1 1ZM827 149c-3 1-4 4-3 7 0 3 3 5 6 4 2 0 4-3 3-6s-3-5-6-5ZM818 150h-1c-2 1-3 3-3 5-1 1 0 3 1 4l3 1 3-1 2-3c0-3-2-6-5-6ZM809 153c2 1 4 0 5-2 1-3 0-6-2-6l-2-1-3 3c-1 3 0 5 2 6Z"/></g><g opacity=".5"><path d="M606 140a9 9 0 0 0-9-12l-7 1a5 5 0 0 0-5 4 5 5 0 0 0 3 6l5 7a5 5 0 0 0 11 1l2-7ZM595 126l4 1 3-3v-4l-1-2c-3-2-5-1-7 2v5l1 1ZM604 129c1 2 5 3 7 1 3-2 4-6 2-8s-5-3-8-1-3 6-1 8ZM608 137l1 1c1 2 3 3 6 2l3-3v-3c0-2-1-3-3-3h-4c-2 1-4 4-3 6ZM615 145c0-2-2-4-5-4s-5 2-5 5l1 2 4 2c3 0 5-2 5-5Z"/></g><g opacity=".7"><path d="M787 81a8 8 0 0 0 2-13l-5-4a5 5 0 0 0-6-1 5 5 0 0 0-2 6l-1 8a5 5 0 0 0 0 6 5 5 0 0 0 6 1l6-3ZM789 66l2 2 3 1c2 0 3-1 3-2l1-3c0-2-3-4-5-3-2 0-4 2-4 3v2Z"/><path d="M792 73c0 3 2 5 5 6 3 0 5-2 6-4 0-3-2-5-5-6-3 0-5 2-6 4ZM790 81l-1 1c0 2 1 4 3 5l4 1c1-1 2-1 2-3v-3l-2-3c-2-1-5 0-6 2ZM789 91c1-2 1-4-1-6-1-2-4-2-6-1l-1 2c0 2 0 3 2 4 1 2 4 2 6 1Z"/></g><g opacity=".9"><path d="M890 195a8 8 0 0 0 12-4l1-6a5 5 0 0 0-2-6 5 5 0 0 0-6 1c-2 2-4 3-7 3a5 5 0 0 0-5 3 5 5 0 0 0 2 6l5 3ZM904 190l-1 3 2 3 2 1 3-1c2-1 2-4 0-6-1-1-3-2-5-1l-1 1ZM900 196c-3 1-4 4-2 7 1 2 3 4 6 3 2-1 3-4 2-7-1-2-4-4-6-3ZM892 198h-1c-2 1-3 3-3 5l2 3 3 1 3-1 1-4c-1-2-3-4-5-4ZM883 202c2 1 5-1 5-3 1-3 0-5-2-6l-3 1c-1 0-2 1-2 3-1 2 0 4 2 5Z"/></g><path d="M827 282a8 8 0 0 0 12-4l1-6a5 5 0 0 0-2-6 5 5 0 0 0-6 1c-2 2-4 3-7 3a5 5 0 0 0-5 3 5 5 0 0 0 2 6l5 3ZM841 277l-1 3 2 3 2 1 3-1c2-1 2-4 0-6-1-1-3-2-5-1l-1 1ZM837 283c-3 1-4 4-2 7 1 2 3 4 6 3 2-1 3-4 2-7-1-2-4-4-6-3ZM829 285h-1c-2 1-3 3-3 5l2 3 3 1 3-1 1-4c-1-2-3-4-5-4ZM820 289c2 1 5-1 5-3 1-3 0-5-2-6l-3 1c-1 0-2 1-2 3-1 2 0 4 2 5Z"/></g><path d="M335 163a10 10 0 0 1 6 16h1-1l-5 7a6 6 0 0 1-7 2 6 6 0 0 1-4-6c0-4-1-7-4-10a6 6 0 0 1-1-7l3-3h4l8 1ZM334 159l4 2 4-2 2-4-10 4Zm0 0v-1c-1-2-1-5 1-6 3-2 6-2 8 0m-9 7 9-7m0 0 1 3-1-3ZM351 169c-3 1-7 0-8-3s1-7 4-8c4-2 7 0 9 3 1 3-1 6-5 8ZM358 176l-2 4-4 2c-3 0-5-2-6-4v-1c-1-3 2-6 5-6l5 1 2 4Zm0 0c0 1 0 3-2 4l2-4Zm-2-4ZM350 188c1-2-1-5-4-6l4 6Zm0 0v1c0 2-3 4-6 3l6-4Zm-11-2 1 2c0 2 2 3 4 4l-5-6Zm0 0c1-3 4-4 7-4l-7 4Z" fill="#FFBD54" stroke="#000"/><path d="m274 224 12 11-1 1-3 3c-2 2-6 1-9-3-3-3-4-7-2-9l3-3Z" fill="#5A6E7F"/><path d="m277 221 11 12-2 2-12-11h1l2-3Z" fill="#FFBD54"/><path d="M338 127a44 44 0 1 1-25 81l-25 25-11-12 25-24c-6-7-9-16-9-26 0-24 20-44 45-44Zm-1 76a31 31 0 1 0 0-63 31 31 0 0 0 0 63Z" fill="#333"/></svg>