<svg width="77" height="72" fill="none" xmlns="http://www.w3.org/2000/svg"><path d="m75 25-3 3H5l-3-3v-7c0-2 1-3 2-3h69c1 0 2 1 2 3v7Z" fill="#FFBD54"/><path d="M73 15h-4c2 0 3 1 3 3v10l3-3v-7c0-2-1-3-2-3Z" fill="#D99830"/><path d="M75 25H2v43l2 3h69l2-3V25Z" fill="#F4FBFF"/><path d="M72 25H2v3h66c2 0 4 2 4 4v36c0 1-1 3-3 3h4l2-3V25h-3Z" fill="#DAF1F4"/><path d="M38 7a3 3 0 1 0 0-6 3 3 0 0 0 0 6Z" fill="#365E7D"/><path d="M52 19H25a1 1 0 1 0 0 2h27a1 1 0 1 0 0-2ZM12 31H7a1 1 0 1 0 0 3h5a1 1 0 1 0 0-3ZM22 31h-5a1 1 0 1 0 0 3h5a1 1 0 1 0 0-3ZM31 31h-4a1 1 0 1 0 0 3h4a1 1 0 1 0 0-3ZM41 31h-5a1 1 0 1 0 0 3h5a1 1 0 1 0 0-3ZM50 31h-4a1 1 0 1 0 0 3h4a1 1 0 1 0 0-3ZM60 31h-5a1 1 0 1 0 0 3h5a1 1 0 1 0 0-3ZM70 31h-5a1 1 0 1 0 0 3h5a1 1 0 1 0 0-3ZM12 39H7a1 1 0 1 0 0 2h5a1 1 0 1 0 0-2ZM22 39h-5a1 1 0 1 0 0 2h5a1 1 0 1 0 0-2ZM31 39h-4a1 1 0 1 0 0 2h4a1 1 0 1 0 0-2ZM41 39h-5a1 1 0 1 0 0 2h5a1 1 0 1 0 0-2ZM50 39h-4a1 1 0 1 0 0 2h4a1 1 0 1 0 0-2ZM60 39h-5a1 1 0 1 0 0 2h5a1 1 0 1 0 0-2ZM70 39h-5a1 1 0 1 0 0 2h5a1 1 0 1 0 0-2ZM12 47H7a1 1 0 1 0 0 2h5a1 1 0 1 0 0-2ZM22 47h-5a1 1 0 1 0 0 2h5a1 1 0 1 0 0-2ZM31 47h-4a1 1 0 1 0 0 2h4a1 1 0 1 0 0-2ZM41 47h-5a1 1 0 1 0 0 2h5a1 1 0 1 0 0-2ZM50 47h-4a1 1 0 1 0 0 2h4a1 1 0 1 0 0-2ZM60 47h-5a1 1 0 1 0 0 2h5a1 1 0 1 0 0-2ZM70 47h-5a1 1 0 1 0 0 2h5a1 1 0 1 0 0-2ZM12 54H7a1 1 0 1 0 0 2h5a1 1 0 1 0 0-2ZM22 54h-5a1 1 0 1 0 0 2h5a1 1 0 1 0 0-2ZM31 54h-4a1 1 0 1 0 0 2h4a1 1 0 1 0 0-2ZM41 54h-5a1 1 0 1 0 0 2h5a1 1 0 1 0 0-2ZM50 54h-4a1 1 0 1 0 0 2h4a1 1 0 1 0 0-2ZM60 54h-5a1 1 0 1 0 0 2h5a1 1 0 1 0 0-2ZM70 54h-5a1 1 0 1 0 0 2h5a1 1 0 1 0 0-2ZM12 62H7a1 1 0 1 0 0 2h5a1 1 0 1 0 0-2ZM22 62h-5a1 1 0 1 0 0 2h5a1 1 0 1 0 0-2ZM31 62h-4a1 1 0 1 0 0 2h4a1 1 0 1 0 0-2Z" fill="#000"/><path d="M73 14h-5L42 1h-7L9 14H4c-2 0-4 2-4 4v50c0 2 2 4 4 4h69c2 0 4-2 4-4v-5a1 1 0 1 0-3 0v5l-1 2H4l-1-2V26h71v32a1 1 0 1 0 3 0V18c0-2-2-4-4-4ZM40 4a2 2 0 1 1-2-2h1l1 2ZM3 18l1-2h18a1 1 0 1 0 0-2h-8L35 3a4 4 0 1 0 7 0l21 11H26a1 1 0 1 0 0 2h47l1 2v6H3v-6Z" fill="#000"/></svg>