<svg width="46" height="73" fill="none" xmlns="http://www.w3.org/2000/svg"><g stroke="#000"><path d="M38 71H7c-2 0-3-1-3-3V5c0-2 1-3 3-3h31c2 0 4 1 4 3v63c0 2-2 3-4 3Z" fill="#EAF6FF"/><path d="M38 73H7c-2 0-4-3-4-5V5c0-2 2-4 4-4h31c3 0 5 2 5 4v63c0 2-2 5-5 5ZM7 2C5 2 4 3 4 5v63c0 2 1 3 3 3h31c2 0 4-1 4-3V5c0-2-2-3-4-3H7Z" fill="#9E9797"/><path d="M27 6h-9c-2 0-4-2-4-4h17c0 2-2 4-4 4Z" fill="#9E9797"/></g><path d="M32 29a14 14 0 0 1 10 23v3l1 3v1l-7-3h-1a14 14 0 0 1-17-13c0-8 6-14 14-14Z" fill="#FFBD54"/><path d="M42 55v-3l3-9a14 14 0 0 0-15-14 14 14 0 0 1 9 23v3l1 3 3 1v-1l-1-3Z" fill="#FFD064"/><path d="M14 23A14 14 0 0 0 4 45v4l-1 3 7-2h1a14 14 0 0 0 17-14c0-7-6-13-14-13Z" fill="#78C0DE"/><path d="M14 23h-1a14 14 0 0 1 0 27h2c7 0 13-6 13-14 0-7-6-13-14-13Z" fill="#80B4FB"/><path d="m14 34-4-4-1 1v4l7 7h4l1-1-4-4-1 1h-1l-2-2v-1l1-1Z" fill="#26457D"/><g fill="#000"><path d="M29 42v1a1 1 0 1 0 1 0v-1a1 1 0 1 0-1 0ZM33 42v1a1 1 0 1 0 2 0v-1a1 1 0 1 0-2 0ZM38 42v1a1 1 0 1 0 1 0v-1a1 1 0 1 0-1 0Z"/><path d="m32 28-5 1a14 14 0 0 0-13-7l-4 1a1 1 0 1 0 0 1l4-1a13 13 0 0 1 13 13c0 4-1 7-3 10a13 13 0 0 1-12 3H9l-5 2 1-2c1-1 0-3-1-4a13 13 0 0 1 4-20 1 1 0 0 0-1-1 15 15 0 0 0-7 12c0 4 1 7 3 10l1 3-2 3v1h1l7-2 1-1a15 15 0 0 0 8 0 14 14 0 0 0 16 7h1l7 2 1-1-2-3 1-3a1 1 0 1 0-1-1c-1 1-2 3-1 4l1 3-5-2-3-1a13 13 0 0 1-14-6 14 14 0 0 0 7-19h5a13 13 0 0 1 11 19 1 1 0 0 0 1 1 14 14 0 0 0-12-22Z"/><path d="m8 36 4 3a1 1 0 0 0 1-1l-4-3v-4h1l3 3v3l1 1h3l3 3h-4l-1-1a1 1 0 0 0-1 1l1 1a4 4 0 0 0 5 0h1a1 1 0 0 0 0-2l-3-4h-2l-1 1-1-1v-3l-3-3a1 1 0 0 0-2 0H8v6Z"/></g></svg>